# xmcd CD database file
#
# Track frame offsets:
#	150
#	42502
#	76108
#	113294
#	148865
#	185936
#
# Disc length: 2952 seconds
#
# Revision: 0
# Processed by: cddbd v1.5.1PL0 Copyright (c) Steve Scherf et al.
# Submitted via: CDex 1.51
#
DISCID=4c0b8606
DTITLE=Philippe Bestion - La maison du Feng Shui - séjour
DYEAR=2002
DGENRE=New Age
TTITLE0=Pièce de vie
TTITLE1=Espace intérieur
TTITLE2=Rencontre et partage
TTITLE3=Retrouvailles
TTITLE4=La tortue
TTITLE5=Terre et amont
EXTD=YEAR: 2002
EXTT0=
EXTT1=
EXTT2=
EXTT3=
EXTT4=
EXTT5=
PLAYORDER=
